<svg id="Capa_1" enable-background="new 0 0 512 512" height="512" viewBox="0 0 512 512" width="512" xmlns="http://www.w3.org/2000/svg"><g><path d="m40.665 37.54h151.666v111h-151.666z"/><path d="m41.128 238.736h191.87v-60c-24.23 0-167.742 0-191.87 0-16.568 0-30 13.432-30 30 0 16.568 13.432 30 30 30z"/><path d="m116.628 313.04c-47.696 0-86.5 38.804-86.5 86.5h173c0-47.697-38.804-86.5-86.5-86.5z"/><path d="m410.76 284.006v-119.463h8.24c24.812 0 44.998-20.186 44.998-45s-20.185-45-44.998-45c-23.596 0-81.48 0-105 0v30h30v34.906c-9.594 4.997-16.713 13.715-20.727 25.716-5.854 17.503-4.773 36.718-4.773 86.033 0 31.135-6.496 83.366-50 83.366h-35.5c0-3.136 0-32.361 0-65.828-40.051 0-142.57 0-185.374 0-3.019 3.899-5.907 7.834-8.646 11.807h-38.98v30h21.301c-18.989 38.507-21.215 70.563-21.301 88.997h.128c0-64.238 52.262-116.5 116.5-116.5s116.5 52.262 116.5 116.5h278.872c-.002-59.156-44.062-108.152-101.24-115.534z"/><path d="m464.605 429.54h-137.437c26.217 59.814 111.156 59.973 137.437 0z"/><path d="m185.347 429.54h-137.438c26.214 59.814 111.155 59.971 137.438 0z"/></g></svg>